<svg preserveAspectRatio="xMidYMid meet" data-bbox="0 0 266.91 249.69" viewBox="0 0 266.91 249.69" height="157.249" width="168.094" xmlns="http://www.w3.org/2000/svg" shape-rendering="geometricPrecision" text-rendering="geometricPrecision" image-rendering="optimizeQuality" fill-rule="evenodd" clip-rule="evenodd" data-type="color" role="presentation" aria-hidden="true" aria-labelledby="svgcid--or31saeb0eiq"><title id="svgcid--or31saeb0eiq"></title>
    <g>
        <path d="M206.64 249.68c-33.29 0-60.27-26.98-60.27-60.27 0-33.29 26.98-60.27 60.27-60.27 33.29 0 60.27 26.98 60.27 60.27 0 33.29-26.98 60.27-60.27 60.27zm25.83-73.18-25.83-17.22-25.83 17.22v25.83l25.83 17.22 25.83-17.22V176.5z" fill="#10acde" fill-rule="nonzero" data-color="1"></path>
        <path d="M60.27 129.15c33.29 0 60.27 26.98 60.27 60.27 0 33.29-26.98 60.27-60.27 60.27C26.98 249.69 0 222.71 0 189.42c0-33.29 26.98-60.27 60.27-60.27zm0 94.71 34.44-34.44-34.44-34.44-34.44 34.44 34.44 34.44z" fill="#10acde" fill-rule="nonzero" data-color="1"></path>
        <path d="M73.18 60.27c0 33.29 26.98 60.27 60.27 60.27 33.29 0 60.27-26.98 60.27-60.27C193.72 26.98 166.74 0 133.45 0c-33.29 0-60.27 26.98-60.27 60.27zm60.27-34.44 30.13 51.66h-60.27l30.13-51.66z" fill="#10acde" fill-rule="nonzero" data-color="1"></path>
    </g>
</svg>