<svg preserveAspectRatio="xMidYMid meet" data-bbox="-0.01 0 328.34 325.51" viewBox="-0.01 0 328.34 325.51" height="186.479" width="188.1" xmlns="http://www.w3.org/2000/svg" shape-rendering="geometricPrecision" text-rendering="geometricPrecision" image-rendering="optimizeQuality" fill-rule="evenodd" clip-rule="evenodd" data-type="color" role="presentation" aria-hidden="true" aria-labelledby="svgcid--jvvae2boa3mv"><title id="svgcid--jvvae2boa3mv"></title>
    <g>
        <path d="m107.49 107.49 87.77 87.77 73.62-73.21-88.18-87.77-73.21 73.21zm93.03 92.63c-6.88 6.88-6.88 17.8 0 24.27 6.88 6.88 17.8 6.88 24.27 0L298 151.18c6.88-6.88 6.88-17.8 0-24.27-6.88-6.88-17.8-6.88-24.27 0l-73.21 73.21zm-65.93-56.22L5.15 273.34c-6.88 6.88-6.88 17.8 0 24.27 6.88 6.88 17.8 6.88 24.27 0l129.44-129.44-24.27-24.27zm-31.96-41.26 73.21-73.21c6.88-6.88 6.88-17.8 0-24.27-6.88-6.88-17.8-6.88-24.27 0L78.36 77.97c-6.88 6.88-6.88 17.8 0 24.27 6.88 6.87 17.8 6.87 24.27.4zm208.31 188.09H173.01c-9.71 0-17.39 7.69-17.39 17.39 0 9.71 7.69 17.39 17.39 17.39h137.93c9.71 0 17.39-7.69 17.39-17.39 0-9.71-8.09-17.39-17.39-17.39z" fill="#10acde" data-color="1"></path>
    </g>
</svg>