<svg preserveAspectRatio="xMidYMid meet" data-bbox="0 -0.01 291.03 277" viewBox="0 -0.01 291.03 277" height="166.054" width="174.469" xmlns="http://www.w3.org/2000/svg" shape-rendering="geometricPrecision" text-rendering="geometricPrecision" image-rendering="optimizeQuality" fill-rule="evenodd" clip-rule="evenodd" data-type="color" role="presentation" aria-hidden="true" aria-labelledby="svgcid-zecly8qqcr6v"><title id="svgcid-zecly8qqcr6v"></title>
    <g>
        <path d="M220.86 91.59c29.18 0 70.17 37.67 70.17 98.61 0 1.85 0 3.32-.37 5.17-9.97-28.44-36.19-49.49-67.59-51.7-2.22-5.91-5.17-10.34-8.49-15.14-6.65-10.34-14.77-19.57-23.27-26.22 9.97-7.02 20.31-10.71 29.54-10.71z" fill="#10acde" fill-rule="nonzero" data-color="1"></path>
        <path d="M220.49 0c20.31 0 37.3 16.62 37.3 37.3 0 8.13-2.22 15.14-6.65 21.42-1.48 1.48-2.22 2.95-3.32 3.69-6.65 7.02-16.25 11.45-26.59 11.45-8.12 0-15.88-2.22-21.79-7.02 2.95-7.76 4.8-15.14 4.8-23.64 0-11.45-3.69-22.53-9.6-31.76 6.28-7.02 15.14-11.45 25.85-11.45z" fill="#10acde" fill-rule="nonzero" data-color="1"></path>
        <path d="M218.27 162.13c4.8 0 9.6 1.11 13.66 1.85 23.27 5.54 41 26.22 42.84 50.6.37 1.85.37 3.32.37 5.17 0 5.17-.37 9.97-1.85 14.77-6.65 24.38-28.44 42.47-55.4 42.47-12.19 0-23.27-3.69-32.87-10.34-6.65-4.43-11.82-10.34-16.25-16.99-5.17-8.49-8.49-19.21-8.49-29.55 0-28.44 21.42-52.44 48.75-56.87 1.11-.37 1.85-.37 2.95-.37 2.58-.74 4.43-.74 6.28-.74zm33.98 46.53c2.22-2.59 2.95-6.28 1.48-9.23-2.59-5.54-9.97-7.02-14.4-2.59-9.6 10.71-19.21 21.79-29.18 32.5-3.32-3.32-7.02-6.65-10.34-9.97-4.43-4.06-12.19-2.59-14.4 2.95-1.48 3.32-.37 7.02 2.22 9.23l16.62 15.88a8.902 8.902 0 0 0 6.28 2.59c2.59 0 4.8-1.11 6.65-2.95l9.6-11.08c8.87-8.86 17.36-18.1 25.49-27.33z" fill="#10acde" fill-rule="nonzero" data-color="1"></path>
        <path d="M176.17 115.97c9.97 6.65 19.21 16.62 26.59 29.18-1.85.37-4.43 1.11-6.28 1.48-31.39 9.24-54.66 38.41-54.66 73.13 0 11.08 2.22 21.42 6.65 31.02-22.53.37-45.43-2.22-60.94-9.23-5.17-1.85-9.6-4.8-12.93-7.76-2.95-2.95-5.17-5.54-6.65-9.6-1.48-3.32-2.22-7.02-2.22-11.45 0-47.64 22.53-82.36 46.53-98.61 5.17-3.69 10.34-6.28 15.88-8.13 5.17-1.85 10.34-2.95 15.14-2.95 5.54 0 11.45 1.48 17.73 3.69 5.17 2.59 9.6 5.17 15.15 9.23z" fill="#10acde" fill-rule="nonzero" data-color="1"></path>
        <path d="M143.3 1.48c22.53 0 40.63 18.1 40.63 40.63s-18.1 40.63-40.63 40.63-40.63-18.1-40.63-40.63 18.1-40.63 40.63-40.63z" fill="#10acde" fill-rule="nonzero" data-color="1"></path>
        <path d="M0 189.83c0-60.94 41-98.61 70.17-98.61 8.49 0 18.47 3.32 27.7 9.6-9.6 7.02-18.1 16.25-25.11 27.7-16.25 24.38-25.85 55.77-25.11 83.84 0 3.69 0 7.02 1.11 10.34-17.73-1.85-32.87-6.65-40.26-14.04-5.91-5.17-8.49-11.45-8.49-18.83z" fill="#10acde" fill-rule="nonzero" data-color="1"></path>
        <path d="M32.5 37.67C32.5 17.36 49.12.37 69.8.37c9.6 0 17.73 3.32 24.38 9.23-6.65 9.6-10.34 21.05-10.34 33.98 0 9.23 1.85 17.73 5.17 25.85-5.17 3.69-11.82 5.91-19.2 5.91-10.34 0-19.94-4.43-26.59-11.45-1.11-1.48-1.85-2.95-3.32-4.43-4.8-6.65-7.39-13.67-7.39-21.79z" fill="#10acde" fill-rule="nonzero" data-color="1"></path>
    </g>
</svg>