<svg preserveAspectRatio="xMidYMid meet" data-bbox="0.01 0.01 3539.07 2902" viewBox="0.01 0.01 3539.07 2902" height="612.265" width="746.668" xmlns="http://www.w3.org/2000/svg" shape-rendering="geometricPrecision" text-rendering="geometricPrecision" image-rendering="optimizeQuality" fill-rule="evenodd" clip-rule="evenodd" data-type="color" role="presentation" aria-hidden="true" aria-labelledby="svgcid-hxfiwuxj3iw4"><title id="svgcid-hxfiwuxj3iw4"></title>
    <g>
        <path d="M3539.07 973.24c0-107.06-87.58-194.65-194.65-194.65h-232.77l-168.78-438.85c-41.94-108.99-168.12-224.45-280.44-256.54.03.05-291.25-83.19-892.91-83.19-601.67 0-892.92 83.24-892.92 83.24-112.3 32.09-238.47 147.5-280.39 256.54L427.43 778.6H194.66C87.6 778.6.01 866.18.01 973.25c0 107.04 87.58 194.65 194.65 194.65h83.02l-59.89 155.72c-41.92 108.94-76.23 293.72-76.23 410.51v920.15c0 136.25 111.49 247.73 247.73 247.73s247.73-111.49 247.73-247.73v-141.55h2264.99v141.55c0 136.25 111.49 247.73 247.73 247.73 136.25 0 247.73-111.49 247.73-247.73l.05-920.15c0-116.79-34.34-301.57-76.23-410.54l-59.91-155.7h83.05c107.06 0 194.65-87.61 194.65-194.65v-.01zm-2912.96 57.47 198.8-539.6c13.48-36.54 56.33-66.43 95.26-66.43h1698.75c38.93 0 81.81 29.9 95.24 66.38l198.8 539.6c13.43 36.54-7.38 66.43-46.31 66.43H672.44c-38.93 0-59.77-29.9-46.31-66.38h-.01zm-6.76 880.34c-107.51 0-194.65-87.24-194.65-194.65 0-107.41 87.14-194.65 194.65-194.65 107.49 0 194.65 87.24 194.65 194.65 0 107.41-87.17 194.65-194.65 194.65zm2300.38 0c-107.51 0-194.65-87.14-194.65-194.65s87.14-194.65 194.65-194.65 194.65 87.14 194.65 194.65c0 107.54-87.14 194.65-194.65 194.65z" fill="#ffffff" fill-rule="nonzero" data-color="1"></path>
    </g>
</svg>