<svg preserveAspectRatio="xMidYMid meet" data-bbox="-0.001 0 177.201 205.21" viewBox="-0.001 0 177.201 205.21" height="157.704" width="136.183" xmlns="http://www.w3.org/2000/svg" shape-rendering="geometricPrecision" text-rendering="geometricPrecision" image-rendering="optimizeQuality" fill-rule="evenodd" clip-rule="evenodd" data-type="color" role="presentation" aria-hidden="true" aria-labelledby="svgcid-jsejs5n6azh0"><title id="svgcid-jsejs5n6azh0"></title>
    <g>
        <path d="M141.2 0H36.01c-9.53 0-18.66 3.79-25.4 10.53A35.958 35.958 0 0 0 .08 35.93v138.53c-.37 4.26.54 8.53 2.61 12.27s5.22 6.77 9.03 8.71c5.17 2.3 16.24 4.17 31.62-9.48 6.32-5.61 9.77-6.18 11.06-6.04 2.88.29 6.18 4.6 9.34 8.91a31.828 31.828 0 0 0 24.86 16.38 31.852 31.852 0 0 0 24.86-16.38c3.16-4.31 6.47-8.62 9.34-8.91 1.29-.14 4.74.43 11.06 6.04 15.23 13.65 26.44 11.78 31.62 9.48 3.81-1.94 6.95-4.97 9.03-8.71 2.07-3.74 2.98-8.01 2.61-12.27V35.93c0-9.53-3.79-18.66-10.53-25.4A35.958 35.958 0 0 0 141.19 0zM52.97 52.59c2.11-2.07 4.95-3.23 7.9-3.23 2.96 0 5.79 1.16 7.9 3.23 2.11 2.1 3.29 4.94 3.29 7.91 0 2.97-1.17 5.82-3.27 7.92a11.15 11.15 0 0 1-7.92 3.27c-2.97 0-5.82-1.19-7.91-3.29a11.288 11.288 0 0 1-3.23-7.9c0-2.96 1.16-5.8 3.23-7.9zm12.36 69.12a7.706 7.706 0 0 1-5.03 2.01 7.79 7.79 0 0 1-5.17-2.01 7.347 7.347 0 0 1-2.05-5.1c0-1.9.73-3.73 2.05-5.1l56.76-56.76c2.82-2.78 7.36-2.76 10.16.04s2.82 7.34.04 10.16l-56.76 56.76zm58.92 2.16a11.288 11.288 0 0 1-7.9 3.23c-2.96 0-5.79-1.16-7.9-3.23a11.172 11.172 0 0 1-2.89-10.8c1.03-3.86 4.05-6.87 7.9-7.9 3.86-1.03 7.97.07 10.8 2.89 2.07 2.11 3.23 4.95 3.23 7.9 0 2.96-1.16 5.8-3.23 7.9z" fill="#10acde" fill-rule="nonzero" data-color="1"></path>
    </g>
</svg>