<svg preserveAspectRatio="xMidYMid meet" data-bbox="0 0 266.92 290.1" viewBox="0 0 266.92 290.1" height="182.712" width="168.094" xmlns="http://www.w3.org/2000/svg" shape-rendering="geometricPrecision" text-rendering="geometricPrecision" image-rendering="optimizeQuality" fill-rule="evenodd" clip-rule="evenodd" data-type="color" role="presentation" aria-hidden="true" aria-labelledby="svgcid-eu7r2zzelrt3"><title id="svgcid-eu7r2zzelrt3"></title>
    <g>
        <path d="M204.89 170.08c-27.2 0-50.05-9.79-61.65-23.94v9.43c0 4.72 1.81 9.43 4.35 13.78-4.72-1.09-9.43-1.81-14.14-1.81-4.72 0-9.79.73-14.5 1.81 2.9-4.35 4.35-8.7 4.35-13.78v-9.43c-11.61 14.5-34.45 23.94-61.65 23.94-27.2 0-50.05-9.79-61.65-23.94v9.43c0 20.31 27.56 36.99 61.65 36.99 8.7 0 17.04-1.09 24.66-2.9-2.18 2.9-4.35 5.8-6.16 9.07-5.8 1.09-11.97 1.45-18.49 1.45-27.2 0-50.05-9.79-61.65-23.94v8.71c0 20.31 27.56 36.99 61.65 36.99 3.63 0 7.25-.36 10.88-.73-.36 2.54-.36 4.71-.36 7.25v.36c-3.26.36-6.89.36-10.52.36-27.2 0-50.05-9.79-61.65-23.94v9.43c0 20.31 27.56 36.99 61.65 36.99 5.08 0 9.79-.36 14.14-1.09 9.43 23.21 31.55 39.53 58.02 39.53 26.47 0 48.59-16.32 57.3-39.53 4.72.73 9.07 1.09 14.14 1.09 34.09 0 61.65-16.68 61.65-36.99v-9.43c-11.61 14.5-34.45 23.93-61.65 23.93-3.63 0-6.89 0-10.15-.36v-.36c0-2.54 0-5.08-.36-7.25 3.63.36 6.89.73 10.52.73 34.09 0 61.65-16.68 61.65-36.99v-9.43c-11.61 14.5-34.45 23.94-61.65 23.94-6.53 0-12.33-.36-18.13-1.45-1.81-3.26-3.99-6.16-6.17-9.07 7.62 1.81 15.59 2.9 24.3 2.9 34.09 0 61.65-16.68 61.65-36.99v-9.43c-11.97 15.22-34.45 24.65-62.01 24.65zm-19.95 58.75c0 13.78-5.44 26.47-14.87 36.26-9.79 9.79-22.48 14.87-36.26 14.87-13.78 0-26.47-5.44-36.26-14.87-9.79-9.79-14.87-22.48-14.87-36.26 0-13.78 5.44-26.47 14.87-36.26 9.79-9.79 22.48-14.87 36.26-14.87 13.78 0 26.47 5.44 36.26 14.87 9.43 9.79 14.87 22.48 14.87 36.26z" fill-rule="nonzero" fill="#10acde" data-color="1"></path>
        <path d="M204.89 140.71c-27.2 0-50.05-9.79-61.65-23.94v9.43c0 20.31 27.56 36.99 61.65 36.99s61.65-16.68 61.65-36.99v-9.43c-11.6 14.14-34.09 23.94-61.65 23.94z" fill-rule="nonzero" fill="#10acde" data-color="1"></path>
        <path d="M204.89 110.97c-27.2 0-50.05-9.79-61.65-23.93v9.43c0 20.31 27.56 36.99 61.65 36.99s61.65-16.68 61.65-36.99v-9.43c-11.6 14.51-34.09 23.93-61.65 23.93z" fill-rule="nonzero" fill="#10acde" data-color="1"></path>
        <path d="M204.89 81.59c-27.2 0-50.05-9.79-61.65-23.93v9.43c0 20.31 27.56 36.99 61.65 36.99s61.65-16.68 61.65-36.99v-9.43c-11.6 14.14-34.09 23.93-61.65 23.93z" fill-rule="nonzero" fill="#10acde" data-color="1"></path>
        <path d="M204.89 0c-34.09 0-61.65 16.68-61.65 36.99 0 20.31 27.56 36.99 61.65 36.99s61.65-16.68 61.65-36.99C266.54 16.68 238.98 0 204.89 0z" fill-rule="nonzero" fill="#10acde" data-color="1"></path>
        <path d="M62.01 162.83c34.09 0 61.65-16.68 61.65-36.99 0-20.31-27.56-36.99-61.65-36.99S.36 105.53.36 125.84c0 20.31 27.56 36.99 61.65 36.99z" fill-rule="nonzero" fill="#10acde" data-color="1"></path>
        <path fill="#10acde" d="M178.64 228.53c0 24.958-20.232 45.19-45.19 45.19s-45.19-20.232-45.19-45.19 20.232-45.19 45.19-45.19 45.19 20.232 45.19 45.19z" data-color="1"></path>
    </g>
</svg>