<svg preserveAspectRatio="xMidYMid meet" data-bbox="0 0 1360.91 1326.45" viewBox="0 0 1360.91 1326.45" height="554.801" width="569.212" xmlns="http://www.w3.org/2000/svg" shape-rendering="geometricPrecision" text-rendering="geometricPrecision" image-rendering="optimizeQuality" fill-rule="evenodd" clip-rule="evenodd" data-type="color" role="presentation" aria-hidden="true" aria-labelledby="svgcid--oh9zka-18hkn6"><title id="svgcid--oh9zka-18hkn6"></title>
    <g>
        <path d="M511.05 71.4v410.95H408.56c-13.85 0-25.73 7.22-32.1 19.52-6.37 12.3-5.42 26.17 2.56 37.48l251.13 355.77c12.58 17.82 31.35 27.54 53.16 27.55 21.82 0 40.58-9.72 53.16-27.55l251.14-355.77c7.99-11.32 8.94-25.18 2.56-37.48-6.37-12.3-18.25-19.52-32.1-19.52H855.59V71.4c0-39.32-32.07-71.4-71.4-71.4H582.44c-39.32 0-71.4 32.07-71.4 71.4z" fill="#ffffff" data-color="1"></path>
        <path d="M87.66 1131.22h1185.59c48.28 0 87.66 39.38 87.66 87.66v19.91c0 48.28-39.38 87.66-87.66 87.66H87.66c-48.28 0-87.66-39.38-87.66-87.66v-19.91c0-48.28 39.38-87.66 87.66-87.66z" fill="#ffffff" data-color="1"></path>
    </g>
</svg>