<svg preserveAspectRatio="xMidYMid meet" data-bbox="0 0.001 76.915 71.001" viewBox="0 0.001 76.915 71.001" height="71.001" width="76.915" xmlns="http://www.w3.org/2000/svg" data-type="color" role="presentation" aria-hidden="true" aria-labelledby="svgcid--kxl7ly-8cmqdc"><title id="svgcid--kxl7ly-8cmqdc"></title>
    <g>
        <path fill="#10acde" d="M65.825 17.752H11.094A11.1 11.1 0 0 0 0 28.846v31.061a11.1 11.1 0 0 0 11.094 11.095h54.731a11.1 11.1 0 0 0 11.09-11.095V28.846a11.1 11.1 0 0 0-11.09-11.094z" data-color="1"></path>
        <path fill="#10acde" d="M54.524.187 11.093 8.674c-3.328.74-8.135 4.086-8.135 8.154 0 0 2.773-3.513 9.06-3.513h53.064v-3.79a10.617 10.617 0 0 0-2.57-6.952A8.744 8.744 0 0 0 54.524.187z" data-color="1"></path>
    </g>
</svg>