<svg preserveAspectRatio="xMidYMid meet" data-bbox="0 0 10096.38 10096.38" viewBox="0 0 10096.38 10096.38" height="620.236" width="620.236" xmlns="http://www.w3.org/2000/svg" shape-rendering="geometricPrecision" text-rendering="geometricPrecision" image-rendering="optimizeQuality" fill-rule="evenodd" clip-rule="evenodd" data-type="color" role="presentation" aria-hidden="true" aria-labelledby="svgcid-4zqbfj79jwer"><title id="svgcid-4zqbfj79jwer"></title>
    <g>
        <path d="M5048.19 0C2260.16 0 0 2260.14 0 5048.19c0 2788.05 2260.14 5048.19 5048.19 5048.19 2788.05 0 5048.19-2260.14 5048.19-5048.19C10096.38 2260.14 7836.24 0 5048.19 0zM3155.15 2681.83c435.65 0 788.78 353.12 788.78 788.78 0 435.66-353.12 788.78-788.78 788.78-435.66 0-788.78-353.12-788.78-788.78 0-435.66 353.12-788.78 788.78-788.78zm3786.14 0c435.65 0 788.78 353.12 788.78 788.78 0 435.66-353.12 788.78-788.78 788.78-435.66 0-788.78-353.12-788.78-788.78 0-435.66 353.12-788.78 788.78-788.78zM2208.62 5836.94h5679.2C7521.94 7022.53 6391.37 7887.8 5048.21 7887.8c-1343.15 0-2473.72-865.15-2839.61-2050.86h.01z" fill="#ffffff" fill-rule="nonzero" data-color="1"></path>
    </g>
</svg>