<svg preserveAspectRatio="xMidYMid meet" data-bbox="0 0 323.5 274.198" viewBox="0 0 323.5 274.198" height="156.743" width="184.923" xmlns="http://www.w3.org/2000/svg" shape-rendering="geometricPrecision" text-rendering="geometricPrecision" image-rendering="optimizeQuality" fill-rule="evenodd" clip-rule="evenodd" data-type="color" role="presentation" aria-hidden="true" aria-labelledby="svgcid--a4uwtebqeh0w"><title id="svgcid--a4uwtebqeh0w"></title>
    <g>
        <path d="M38.86 243.74H0V132.8h38.86c7.16 0 13.29 6.14 13.29 13.29v84.36c0 7.67-5.63 13.29-13.29 13.29zm278.12-43.46-102.25 63.91c-20.45 12.78-44.99 12.78-63.91 3.07-60.33-28.12-69.02-38.35-93.05-38.86v-79.75h51.13c39.88 0 39.37 35.79 81.8 35.79h33.74c7.16 0 13.29 6.14 13.29 13.29 0 7.16-6.14 13.29-13.29 13.29h-69.02c-1.53 0-2.56 1.02-2.56 2.56 0 1.53 1.02 2.56 2.56 2.56h69.02c3.07 0 5.62-.51 7.67-2.05l72.09-36.81c6.14-3.58 14.32-1.02 17.89 5.62 3.07 6.65 1.02 13.8-5.11 17.38z" fill="#10acde" fill-rule="nonzero" data-color="1"></path>
        <path d="M148.8 66.4c0 36.67 29.73 66.4 66.4 66.4s66.4-29.73 66.4-66.4S251.87 0 215.2 0s-66.4 29.73-66.4 66.4zm66.4-37.94 33.2 56.91H182l33.2-56.91z" fill="#10acde" fill-rule="nonzero" data-color="1"></path>
    </g>
</svg>