<svg preserveAspectRatio="xMidYMid meet" data-bbox="0 -0.01 236.105 236.587" viewBox="0 -0.01 236.105 236.587" height="157.455" width="157.149" xmlns="http://www.w3.org/2000/svg" shape-rendering="geometricPrecision" text-rendering="geometricPrecision" image-rendering="optimizeQuality" fill-rule="evenodd" clip-rule="evenodd" data-type="color" role="presentation" aria-hidden="true" aria-labelledby="svgcid-1vqdca-a8l1qg"><title id="svgcid-1vqdca-a8l1qg"></title>
    <g>
        <path d="M98.49 0c54.37 0 98.49 44.65 98.49 100.07 0 20.75-6.3 39.92-16.81 55.94l51.21 52c6.3 6.57 6.3 17.07 0 23.64s-16.81 6.57-23.11 0l-50.69-51.48c-16.55 12.61-36.77 19.96-59.09 19.96C44.12 199.87 0 155.22 0 100.06 0 44.64 44.12-.01 98.49-.01zm0 33.36c-36.24 0-65.66 29.94-65.66 66.71 0 36.77 29.41 66.71 65.66 66.71s65.66-29.94 65.66-66.71c.26-37.03-29.15-66.71-65.66-66.71z" fill="#10acde" data-color="1"></path>
    </g>
</svg>