<svg preserveAspectRatio="xMidYMid meet" data-bbox="-0.005 0.007 269.645 232.073" viewBox="-0.005 0.007 269.645 232.073" height="144.537" width="167.934" xmlns="http://www.w3.org/2000/svg" shape-rendering="geometricPrecision" text-rendering="geometricPrecision" image-rendering="optimizeQuality" fill-rule="evenodd" clip-rule="evenodd" data-type="color" role="presentation" aria-hidden="true" aria-labelledby="svgcid--kc50s1-23tut2"><title id="svgcid--kc50s1-23tut2"></title>
    <g>
        <path d="M264.25 92.87h-6.24l-30.34-74.28 15.31-3.4c4.25-.85 6.8-5.1 5.95-9.07-.85-4.25-4.82-6.8-9.07-5.95l-81.65 17.58c-4.54-8.22-13.32-13.89-23.53-13.89-14.18 0-25.51 11.06-26.65 24.66L26.38 46.1c-4.25.85-6.8 5.1-5.95 9.07.85 3.69 3.97 5.95 7.37 5.95.57 0 1.13 0 1.7-.28l10.49-2.27-28.63 70.88H5.12c-3.12 0-5.39 2.84-5.1 5.67 2.84 25.8 24.95 45.93 51.6 45.93 26.65 0 48.76-20.13 51.6-45.93.28-3.12-1.99-5.67-5.1-5.67h-6.24L61.26 54.61l50.18-10.77c2.84 4.82 6.8 8.79 11.91 11.34v153.66H79.12c-6.24 0-11.62 5.1-11.62 11.62 0 6.24 5.1 11.62 11.62 11.62h111.13c6.24 0 11.62-5.1 11.62-11.62 0-6.24-5.1-11.62-11.62-11.62h-43.94V54.9c8.51-3.97 14.46-12.19 15.03-22.11l44.79-9.64-28.35 69.46h-6.24c-3.12 0-5.39 2.84-5.1 5.67 2.84 25.8 24.95 45.93 51.6 45.93 26.65 0 48.76-20.13 51.6-45.93 0-2.84-2.27-5.39-5.39-5.39zM28.09 129.44l23.53-57.83 23.53 57.83H28.09zm166.13-36.57 23.53-57.83 23.53 57.83h-47.06z" fill="#10acde" fill-rule="nonzero" data-color="1"></path>
    </g>
</svg>