<svg preserveAspectRatio="xMidYMid meet" data-bbox="0.009 0 3801.581 4122.138" viewBox="0.009 0 3801.581 4122.138" height="672.533" width="620.236" xmlns="http://www.w3.org/2000/svg" shape-rendering="geometricPrecision" text-rendering="geometricPrecision" image-rendering="optimizeQuality" fill-rule="evenodd" clip-rule="evenodd" data-type="color" role="presentation" aria-hidden="true" aria-labelledby="svgcid-ed9g2tvbgd7x"><title id="svgcid-ed9g2tvbgd7x"></title>
    <g>
        <path d="M3762.46 3345.44c-151.02-892.42-1221.93-1185.32-1363.8-1217.35-297.46 233.39-718.53 233.39-1015.98 0-141.86 32.05-1189.89 320.35-1340.92 1217.35-77.8 375.29-54.91 695.64 137.3 759.71 114.41 36.62 302.06-9.16 503.43-73.23 4.57 0 4.57 0 9.16-4.57h4.56c123.58-41.18 210.54-155.59 210.54-288.33v-13.73c0-114.41-64.07-215.1-155.59-265.44 160.13-475.94 613.21-814.62 1148.62-814.62 530.88 0 983.95 343.24 1153.28 819.19-91.52 54.91-155.59 151.02-155.59 265.44v13.73c0 137.3 91.52 251.72 215.1 292.9 205.93 59.5 389.02 109.85 498.83 73.23 196.77-59.47 228.83-388.99 151.02-764.28l.03-.01z" fill="#ffffff" fill-rule="nonzero" data-color="1"></path>
        <path d="M2897.49 1043.45c0 576.28-444.62 1043.45-993.1 1043.45-548.47 0-993.1-467.17-993.1-1043.45S1355.91 0 1904.39 0c548.47 0 993.1 467.17 993.1 1043.45z" fill="#ffffff" fill-rule="nonzero" data-color="1"></path>
        <path d="M2215.59 3684.1c32.05 54.91 50.34 114.41 50.34 183.04 0 82.36-27.45 155.59-73.23 215.1 251.71-13.73 462.22-45.78 640.69-86.96 4.57-41.18 9.16-86.96 9.16-132.7 0-224.26-77.8-425.6-205.93-590.36l-421.04 411.88z" fill="#ffffff" fill-rule="nonzero" data-color="1"></path>
        <path d="m1584.04 3684.1-416.47-407.31c-132.7 160.19-210.54 366.13-210.54 590.36 0 45.78 4.57 91.52 9.16 132.7 178.49 41.18 389.02 68.64 640.7 82.36-45.78-59.5-73.23-137.3-73.23-215.1.03-68.6 18.36-132.67 50.38-183.02v.01z" fill="#ffffff" fill-rule="nonzero" data-color="1"></path>
        <path d="M1899.82 3684.1c-100.68 0-183.04 82.36-183.04 183.04 0 100.68 82.36 183.04 183.04 183.04 100.68 0 183.04-82.36 183.04-183.04 0-100.68-82.36-183.04-183.04-183.04z" fill="#ffffff" fill-rule="nonzero" data-color="1"></path>
        <path d="M1899.82 2924.4c-233.39 0-443.92 82.36-608.68 224.26l421.04 407.31c54.91-32.05 118.98-50.34 187.64-50.34 68.64 0 137.3 18.29 192.21 54.91l421.04-407.31c-169.32-141.86-379.85-228.83-613.24-228.83h-.01z" fill="#ffffff" fill-rule="nonzero" data-color="1"></path>
    </g>
</svg>